<?xml version="1.0" encoding="UTF-8"?>
<svg id="Layer_1" xmlns="http://www.w3.org/2000/svg" version="1.1" viewBox="0 0 180 54.4">
  <defs>
    <style>
      .st0 {
        fill: #0691b7;
      }

      .st1 {
        fill: #201600;
      }
    </style>
  </defs>
  <path class="st1" d="M62.2,53h-12.7v-1.7c.4,0,.8,0,1.3-.1.4,0,.8,0,1.1-.2.5-.1.9-.4,1.1-.8.3-.5.4-1,.4-1.5v-30.1c0-.6-.1-1.2-.4-1.8-.2-.5-.6-1-1.1-1.3-.5-.3-1.1-.5-1.7-.6-.7-.1-1.3-.3-2-.3v-1.7l9.8-.6.4.4v35.7c0,.5,0,1,.3,1.5.3.4.6.7,1.1.9.4.2.8.3,1.1.4.4,0,.8.2,1.3.2v1.7Z"/>
  <path class="st1" d="M91.8,40c.1,3.6-1.2,7.2-3.7,9.8-2.1,2.5-5.3,4-8.6,4-1.4,0-2.8-.2-4.2-.7-1.4-.4-2.7-1-3.9-1.8l-2,3-1.6-.4c0-1.3.1-2.9.2-4.7,0-1.8,0-3.6,0-5.3v-25.8c0-.6-.1-1.2-.4-1.8-.2-.5-.6-1-1-1.3-.5-.3-1.1-.5-1.7-.5-.8-.1-1.4-.2-1.9-.2v-1.7l9.5-.6.4.4v17.1h.2c1-1,2.2-1.9,3.6-2.6,1.2-.6,2.5-.9,3.8-.9,3.1,0,6.1,1.4,8,3.8,2.2,2.8,3.4,6.3,3.2,9.9ZM86.3,40.2c0-1.3-.1-2.7-.4-4-.2-1.2-.7-2.4-1.3-3.5-.6-1-1.4-1.8-2.3-2.5-1-.7-2.3-1-3.5-.9-1.1,0-2.2.2-3.2.7-.9.5-1.8,1.2-2.5,2v15.1c.1.5.4,1,.6,1.5.7,1.2,1.8,2.2,3,2.8.8.3,1.6.5,2.5.5,2.2,0,4.2-1.2,5.2-3.1,1.3-2.1,2-4.9,2-8.5Z"/>
  <path class="st1" d="M118.8,46.9c-1,2-2.5,3.7-4.4,5-1.9,1.2-4.1,1.9-6.3,1.8-1.9,0-3.8-.3-5.5-1.1-1.5-.7-2.8-1.7-3.9-3-1-1.3-1.8-2.8-2.3-4.4-.5-1.7-.8-3.5-.8-5.4,0-1.7.3-3.4.8-5,.5-1.6,1.3-3.1,2.4-4.4,1-1.3,2.3-2.3,3.7-3,1.5-.8,3.3-1.2,5-1.1,1.7,0,3.3.3,4.9.9,1.3.5,2.4,1.4,3.3,2.5.8,1,1.4,2.2,1.8,3.5.4,1.4.6,2.9.6,4.4v1.7h-17.2c0,1.6.1,3.1.5,4.7.3,1.3.8,2.6,1.5,3.7.7,1,1.6,1.8,2.7,2.4,1.2.6,2.6.9,4,.9,1.4,0,2.8-.3,4-1.1,1.4-1,2.5-2.4,3.3-4l1.8,1.1ZM113,37c0-1.1,0-2.1-.3-3.2-.1-1-.4-1.9-.8-2.8-.4-.8-1-1.5-1.7-2-.8-.5-1.8-.8-2.7-.8-1.8,0-3.5.8-4.6,2.3-1.3,1.9-2,4.1-2,6.4h12Z"/>
  <path class="st1" d="M150.3,52.5l-9.1.6-.4-.4v-2.4h-.2c-1,1-2.1,1.8-3.4,2.5-1.3.6-2.7,1-4.1,1-1.5,0-2.9-.3-4.3-1-1.4-.7-2.6-1.6-3.6-2.8-1.1-1.3-1.9-2.8-2.5-4.4-.6-1.8-.9-3.7-.9-5.6,0-1.8.3-3.6,1-5.4.6-1.6,1.5-3.1,2.7-4.4,1.1-1.2,2.4-2.2,3.9-2.8,1.5-.7,3.1-1,4.8-1.1,1.2,0,2.4.2,3.6.5,1.1.3,2.1.7,3,1.2v-9.1c0-.7-.1-1.4-.4-2-.2-.6-.6-1-1-1.4-.6-.4-1.3-.6-2-.7-.9-.2-1.8-.3-2.7-.3v-1.6l10.7-.6.4.4v35c0,.5.1,1.1.4,1.6.3.4.6.8,1,1.1.4.2.9.4,1.5.4.6,0,1.2,0,1.7.1v1.7ZM140.7,48v-15.2c-.2-.5-.4-1-.7-1.5-.3-.5-.7-1-1.2-1.5-.5-.5-1.1-.8-1.8-1.1-.8-.3-1.6-.5-2.4-.4-1,0-2,.3-2.9.8-.9.6-1.7,1.4-2.4,2.3-.7,1.2-1.2,2.4-1.5,3.8-.4,1.7-.6,3.3-.6,5,0,1.4.1,2.7.4,4,.3,1.2.8,2.3,1.4,3.4.6,1,1.4,1.8,2.4,2.4,1,.6,2.2.9,3.4.9,1.2,0,2.4-.3,3.5-.9.9-.6,1.6-1.2,2.3-2Z"/>
  <path class="st1" d="M178.2,39.7c0,1.8-.3,3.7-.9,5.4-.5,1.7-1.4,3.2-2.5,4.5-1.1,1.4-2.6,2.4-4.2,3.1-1.7.7-3.5,1.1-5.4,1-1.6,0-3.2-.3-4.7-.9-1.5-.6-2.9-1.6-4-2.7-1.2-1.2-2.1-2.7-2.7-4.3-.7-1.8-1-3.8-1-5.7-.1-3.7,1.1-7.2,3.6-10,5-5.1,13.2-5.2,18.3-.2,2.4,2.5,3.6,5.7,3.6,9.8ZM172.7,39.8c0-1.4-.1-2.8-.4-4.2-.2-1.3-.6-2.6-1.2-3.7-.5-1-1.3-1.9-2.2-2.6-1-.7-2.2-1-3.4-1-1.2,0-2.4.3-3.5,1-1,.7-1.8,1.6-2.3,2.7-.6,1.2-1,2.4-1.2,3.7-.2,1.3-.3,2.6-.3,4,0,1.6.1,3.1.4,4.7.2,1.3.7,2.6,1.3,3.8.5,1,1.3,2,2.3,2.6,1,.7,2.2,1,3.4,1,2.2,0,4.2-1.2,5.2-3.2,1.3-2.1,1.9-5.1,1.9-8.8h0Z"/>
  <path class="st0" d="M26,.3h-2.2L1.4,52.7h0s6,0,6,0l4.5-10.5c9.3,3.1,19.4,3.1,28.7-.1l4.5,10.6h3.2S26,.3,26,.3ZM26,42.6c-4.5,0-9-.7-13.3-2.1l13.6-31.8,13.5,31.6c-4.4,1.5-9.1,2.3-13.8,2.3Z"/>
</svg>