<?xml version="1.0" encoding="utf-8"?>
<svg version="1.1" xmlns="http://www.w3.org/2000/svg" viewBox="0 0 178.1586914 54.3897476">
<path fill="#201600" d="M62.1694298,52.99226h-12.682621v-1.7402306c0.4043007-0.0351601,0.8349648-0.0747108,1.2919998-0.1186485
	c0.3833008-0.0304375,0.7628975-0.0968094,1.1337814-0.1982498c0.4581146-0.1327438,0.8519478-0.4282875,1.1074295-0.8310509
	c0.2648697-0.4698792,0.3927536-1.0045853,0.3691406-1.5434608V18.4278088
	c0.0036545-0.6173992-0.1362572-1.2271957-0.4086914-1.78125c-0.2424622-0.5168629-0.6093826-0.9654884-1.0678787-1.3056602
	c-0.5428658-0.2910194-1.1313744-0.4873562-1.7402306-0.5805702c-0.6692352-0.1491947-1.3474007-0.2550488-2.0302696-0.3169003
	v-1.6874695l9.782238-0.5801001l0.3691406,0.3955002V48.24617c-0.0209351,0.5267105,0.0972939,1.0496368,0.3427811,1.5161095
	c0.256218,0.4192352,0.6464043,0.7397461,1.1074181,0.9096718c0.368248,0.1696014,0.7524796,0.3020935,1.1469994,0.3955116
	c0.4208717,0.0944176,0.8484154,0.1561279,1.2788086,0.1845703L62.1694298,52.99226z"/>
<path fill="#201600" d="M91.8325195,39.9668694c0.1012573,3.6346283-1.2236633,7.1646042-3.6914063,9.8349991
	c-2.1431732,2.5080147-5.2704086,3.9609756-8.5693359,3.9814491c-1.4275131-0.0008202-2.8462524-0.2231941-4.2055588-0.6591797
	c-1.3623962-0.4311523-2.6681213-1.0242615-3.8891602-1.7666016l-1.9511719,3.0322189l-1.6347733-0.3696213
	c0.0878983-1.3012733,0.1494217-2.866703,0.1845703-4.6962891c0.0351639-1.8291054,0.052742-3.5968513,0.0527267-5.3032303
	V18.2691174c-0.0050964-0.6204777-0.1445236-1.2324905-0.4086914-1.7939491
	c-0.2121277-0.5242367-0.5744705-0.974081-1.0414963-1.2929993c-0.51548-0.2878265-1.0861359-0.463068-1.6743164-0.5141602
	c-0.7822189-0.1147404-1.4106369-0.1896095-1.8852463-0.2246094v-1.6874409l9.5449219-0.5800705l0.3691406,0.3955002v17.1386509
	l0.1845703,0.0527287c1.0055923-1.0989285,2.2201843-1.9863415,3.5727615-2.6103497
	c1.1935883-0.55797,2.492569-0.8546238,3.810051-0.8701191c3.1148376-0.0400314,6.07341,1.3613987,8.0156326,3.7968788
	C90.8509293,32.8762779,91.9940643,36.3900337,91.8325195,39.9668694z M86.3217697,40.1514397
	c-0.0041885-1.3380775-0.145546-2.6721992-0.4218674-3.9814415c-0.2397919-1.2428894-0.6853714-2.4370346-1.3183594-3.5332108
	c-0.5778732-0.9981422-1.3815765-1.8470001-2.3466797-2.478508c-1.0407486-0.6536484-2.2519684-0.9839821-3.4804688-0.9492207
	c-1.1196976-0.0254021-2.2286072,0.2235355-3.2300034,0.7250996c-0.9423599,0.4989586-1.7865601,1.1644859-2.4916992,1.9643517
	v15.1347694c0.14431,0.5160484,0.3524551,1.0120697,0.6196289,1.4765587
	c0.6871643,1.2388573,1.7550125,2.2234955,3.0454254,2.8081207c0.7746201,0.3285942,1.6110764,0.4859886,2.4521484,0.4614182
	c2.16922-0.0124474,4.1596909-1.2047119,5.1943283-3.1113319C85.66259,46.5943108,86.3217697,43.7554436,86.3217697,40.1514397z"/>
<path fill="#201600" d="M118.7797775,46.8750763c-1.0189514,1.9940948-2.524353,3.6990051-4.3769531,4.9570007
	c-1.8643494,1.2410393-4.0624619,1.8848343-6.3017578,1.8456993c-1.8918152,0.0413666-3.7693024-0.3368301-5.4975586-1.1074181
	c-1.5103912-0.689373-2.8413162-1.7180176-3.8891602-3.0058594c-1.0437927-1.3124466-1.8188019-2.8176689-2.2807617-4.4296913
	c-0.5082321-1.7384033-0.7613602-3.5413933-0.7514572-5.3525391c0.0000153-1.6891251,0.2715378-3.3672676,0.8041916-4.970211
	c0.5181732-1.5925522,1.3174133-3.0794106,2.3598709-4.3901405c1.0156631-1.2593708,2.2874374-2.2884483,3.7310028-3.019001
	c1.5487213-0.7794971,3.2629471-1.173008,4.996582-1.1469994c1.670578-0.0430336,3.3318176,0.2622776,4.8779297,0.8964901
	c1.2789917,0.5419254,2.4092712,1.3828526,3.2958984,2.4521503c0.8302307,1.0267258,1.4445572,2.2105484,1.8061523,3.4804688
	c0.4063416,1.414032,0.606163,2.8793793,0.5932617,4.3505821v1.7402496h-17.2178192
	c-0.015831,1.5640068,0.1478424,3.1246643,0.487793,4.6513596c0.289444,1.3071251,0.8119431,2.5514336,1.5424805,3.6733398
	c0.6808624,1.0176277,1.6053925,1.8488388,2.6894531,2.4179993c1.2249146,0.6174774,2.5838089,0.9216385,3.9550781,0.8852615
	c1.4277725,0.0378151,2.8351822-0.3447304,4.0473633-1.1001015c1.3953705-1.0392761,2.5210953-2.3980865,3.2827225-3.9623985
	L118.7797775,46.8750763z M112.9526291,36.9609566c-0.0058365-1.0561562-0.0895538-2.1104469-0.2504807-3.1542892
	c-0.1239624-0.9730034-0.3951263-1.921505-0.8041992-2.8129997c-0.3851013-0.7824211-0.955307-1.459053-1.6611404-1.9711895
	c-0.8008423-0.5371914-1.7523956-0.8044205-2.7158203-0.7626991c-1.8140106-0.0162258-3.5255203,0.8394394-4.6010666,2.3002911
	c-1.3313828,1.8656502-2.0291443,4.1092072-1.9907227,6.4008789L112.9526291,36.9609566z"/>
<path fill="#201600" d="M150.2621918,52.5176468l-9.0952148,0.5800781l-0.3970032-0.3691406v-2.4257774l-0.2104492-0.0527306
	c-0.9524536,1.0490913-2.1022644,1.9002609-3.3837433,2.5048828c-1.2896881,0.6376534-2.7082977,0.9713783-4.1470032,0.9755783
	c-1.4826813-0.0018349-2.9456482-0.3399048-4.2788086-0.9887695c-1.3818207-0.6615982-2.6069031-1.6098709-3.59375-2.7817307
	c-1.082489-1.2954979-1.9172058-2.779232-2.46241-4.3769989c-0.6235504-1.8149872-0.9307556-3.723587-0.9082031-5.6425705
	c-0.0094528-1.8290977,0.3208542-3.6440506,0.9741211-5.3525391c0.6141357-1.6297493,1.524826-3.1316452,2.685997-4.4296913
	c1.103653-1.2015247,2.4436646-2.162035,3.9360046-2.8212891c1.4901428-0.6889362,3.1112518-1.0486641,4.7529297-1.0546894
	c1.2040558-0.0006351,2.4031219,0.1544609,3.5673828,0.4614296c1.050705,0.2617474,2.0638733,0.6560211,3.0151367,1.1733398
	v-9.061491c0.0089722-0.6912136-0.1164093-1.3775883-0.3691406-2.0209999
	c-0.20401-0.5507145-0.5607147-1.0319023-1.0283203-1.3872108c-0.6062164-0.3770981-1.2840729-0.6243324-1.9907227-0.7260704
	c-0.8944855-0.1572952-1.7966003-0.2676353-2.7026367-0.3305702v-1.6347275l10.6513672-0.5800705l0.3964844,0.3950005v35.0444183
	c-0.0165405,0.5445442,0.1059875,1.0843201,0.3560028,1.5683594c0.2510681,0.4451942,0.6089935,0.8209076,1.0415039,1.0932617
	c0.4459076,0.2431488,0.9425812,0.3784332,1.4501953,0.3950005c0.6328125,0.0527344,1.2128906,0.0878906,1.7402344,0.1054688
	L150.2621918,52.5176468z M140.7173309,47.9561272V32.74226c-0.1684265-0.5176659-0.3980865-1.0133629-0.684082-1.4765587
	c-0.3238373-0.5371628-0.7225342-1.0254631-1.184082-1.4501915c-0.5359344-0.4558907-1.1398926-0.8251038-1.7899933-1.0942402
	c-0.7608185-0.3044815-1.5752258-0.4524498-2.3945313-0.4350605c-1.0270538-0.007019-2.0351868,0.2763271-2.9082031,0.8173809
	c-0.9448547,0.6033039-1.7480469,1.4038334-2.3544922,2.3466816c-0.7210999,1.1568642-1.241745,2.4271545-1.5399933,3.7573318
	c-0.3922577,1.6539955-0.5821228,3.3495178-0.5654297,5.0493088c-0.0134583,1.3519974,0.1277618,2.7010956,0.4208984,4.0209999
	c0.2765198,1.1940613,0.7572174,2.3313828,1.4208984,3.3618088c0.591629,0.9620743,1.3978119,1.7742462,2.3554688,2.3730011
	c1.0276184,0.617054,2.2099762,0.9280586,3.4082031,0.8964882c1.2282562,0.0480194,2.442688-0.2734489,3.4863281-0.9228592
	C139.2541656,49.4197197,140.0378571,48.7365646,140.7173309,47.9561272z"/>
<path fill="#201600" d="M178.1586914,39.7295685c-0.0007172,1.8323364-0.2947998,3.6527405-0.8710938,5.3920898
	c-0.5158844,1.6502914-1.3597565,3.1793938-2.4810028,4.4956017c-1.1474915,1.3569603-2.5927277,2.4307327-4.2231445,3.1376991
	c-1.7061462,0.7059669-3.5385437,1.0558968-5.3847656,1.0283203c-1.6215363,0.0062523-3.2279358-0.3119926-4.7246094-0.9360008
	c-1.501236-0.6273041-2.8576813-1.5561485-3.9853516-2.7290001c-1.1859283-1.2428551-2.1143799-2.7079582-2.7319336-4.3110008
	c-0.6999512-1.8205299-1.0448761-3.7582436-1.0161133-5.7084885c-0.1468048-3.6558914,1.1252747-7.2270203,3.550293-9.9668007
	c5.0133362-5.089941,13.1953278-5.1782722,18.3173828-0.1977501
	C176.9750671,32.3863411,178.1585236,35.6514473,178.1586914,39.7295685z M172.7006989,39.782299
	c-0.0079041-1.4020691-0.1405945-2.8006554-0.3964844-4.1791992c-0.2084808-1.2958145-0.6090546-2.5532951-1.1884766-3.7309494
	c-0.5202942-1.0386009-1.2809448-1.9380302-2.21875-2.623539c-0.9838104-0.6798992-2.1596985-1.0264511-3.3549957-0.9887695
	c-1.2339783-0.0359211-2.4483643,0.3143806-3.4736328,1.0020008c-0.9934082,0.707262-1.796402,1.649313-2.3374176,2.7421894
	c-0.5892029,1.1504593-0.9906006,2.3877563-1.1889954,3.6650009c-0.2241516,1.3153954-0.3389587,2.6470985-0.3432617,3.9814491
	c-0.0106964,1.569458,0.1264648,3.1364365,0.409668,4.6801682c0.2397003,1.3374901,0.6805725,2.6309662,1.3076172,3.8364296
	c0.5332642,1.0490265,1.3070984,1.9570465,2.2583008,2.6498985c0.9931641,0.6675186,2.1717682,1.0043335,3.3676758,0.9623985
	c2.203476,0.0006866,4.2223206-1.2308617,5.2299957-3.1904297c1.2856445-2.1264648,1.9285736-5.0620117,1.9287415-8.8066483
	H172.7006989z"/>
<path fill="#0691B7" d="M25.9662991-0.22h-2.2114315L1.3676691,52.6955299l0.0669498,0.0283203h5.9740605l4.48-10.5890007
	c9.3098145,3.1379776,19.3996696,3.0853882,28.6762695-0.1494713l4.5432816,10.7384605h3.1783409l0.0670013-0.0283203
	L25.9662991-0.22z M26.011219,42.4505386c-4.533947-0.000885-9.0380802-0.7329521-13.3389292-2.1679993L26.2582893,8.1701698
	l13.526001,31.970089C35.353466,41.6700554,30.698698,42.45084,26.011219,42.4505386z"/>
</svg>
