<svg xmlns="http://www.w3.org/2000/svg" viewBox="0 0 102 117.77945"><polygon points="101 87.757 101 30.022 51 1.155 1 30.022 1 87.757 51 116.625 101 87.757" fill="none" stroke="#000" stroke-width="2"/><polygon points="59.75 28.579 42.25 28.579 33.5 43.734 42.25 58.89 59.75 58.89 68.5 43.734 59.75 28.579" fill="none" stroke="#000" stroke-width="2"/><polygon points="59.75 58.89 42.25 58.89 33.5 74.045 42.25 89.201 59.75 89.201 68.5 74.045 59.75 58.89" fill="none" stroke="#000" stroke-width="2"/><polygon points="85.595 43.734 68.095 43.734 59.345 58.89 68.095 74.045 85.595 74.045 94.345 58.89 85.595 43.734" fill="none" stroke="#000" stroke-width="2"/><polygon points="33.375 43.734 15.875 43.734 7.125 58.89 15.875 74.045 33.375 74.045 42.125 58.89 33.375 43.734" fill="none" stroke="#000" stroke-width="2"/></svg>