<svg xmlns="http://www.w3.org/2000/svg" viewBox="0 0 102 117.77945"><polygon points="101 87.757 101 30.022 51 1.155 1 30.022 1 87.757 51 116.625 101 87.757" fill="none" stroke="#000" stroke-width="2"/><polygon points="42.436 26.929 27.603 35.493 20.005 27.895 8.66 47.545 19.039 50.326 19.039 67.454 8.66 70.235 20.005 89.885 27.603 82.287 42.436 90.85 39.655 101.23 62.345 101.23 59.564 90.85 74.397 82.287 81.995 89.885 93.34 70.235 82.961 67.454 82.961 50.326 93.34 47.545 81.995 27.895 74.397 35.493 59.564 26.929 62.345 16.55 39.655 16.55 42.436 26.929" fill="none" stroke="#000" stroke-width="2"/></svg>