<svg xmlns="http://www.w3.org/2000/svg" viewBox="0 0 102 117.77945"><polygon points="101 87.757 101 30.022 51 1.155 1 30.022 1 87.757 51 116.625 101 87.757" fill="none" stroke="#000" stroke-width="2"/><polyline points="87.536 83.984 91 81.984 91 77.984" fill="none" stroke="#000" stroke-width="2"/><line x1="91" y1="74.16493" x2="91" y2="41.70512" fill="none" stroke="#000" stroke-width="2" stroke-dasharray="7.6376 3.8188"/><polyline points="91 39.796 91 35.796 87.536 33.796" fill="none" stroke="#000" stroke-width="2"/><line x1="84.22872" y1="31.88632" x2="56.11769" y2="15.65641" fill="none" stroke="#000" stroke-width="2" stroke-dasharray="7.6376 3.8188"/><polyline points="54.464 14.702 51 12.702 47.536 14.702" fill="none" stroke="#000" stroke-width="2"/><line x1="44.22872" y1="16.61111" x2="16.11769" y2="32.84102" fill="none" stroke="#000" stroke-width="2" stroke-dasharray="7.6376 3.8188"/><polyline points="14.464 33.796 11 35.796 11 39.796" fill="none" stroke="#000" stroke-width="2"/><line x1="11" y1="43.61452" x2="11" y2="76.07434" fill="none" stroke="#000" stroke-width="2" stroke-dasharray="7.6376 3.8188"/><polyline points="11 77.984 11 81.984 14.464 83.984" fill="none" stroke="#000" stroke-width="2"/><line x1="17.77128" y1="85.89314" x2="45.88231" y2="102.12305" fill="none" stroke="#000" stroke-width="2" stroke-dasharray="7.6376 3.8188"/><polyline points="47.536 103.078 51 105.078 54.464 103.078" fill="none" stroke="#000" stroke-width="2"/><line x1="57.77128" y1="101.16835" x2="85.88231" y2="84.93844" fill="none" stroke="#000" stroke-width="2" stroke-dasharray="7.6376 3.8188"/></svg>