<?xml version="1.0" standalone="no"?>
<!DOCTYPE svg PUBLIC "-//W3C//DTD SVG 20010904//EN"
 "http://www.w3.org/TR/2001/REC-SVG-20010904/DTD/svg10.dtd">
<svg version="1.0" xmlns="http://www.w3.org/2000/svg"
 width="700.000000pt" height="700.000000pt" viewBox="0 0 700.000000 700.000000"
 preserveAspectRatio="xMidYMid meet">
<metadata>
Created by potrace 1.11, written by Peter Selinger 2001-2013
</metadata>
<g transform="translate(0.000000,700.000000) scale(0.100000,-0.100000)"
fill="#000000" stroke="none">
<path d="M3344 6644 c-13 -29 -24 -55 -24 -58 0 -4 -9 -25 -19 -49 -11 -23
-52 -118 -91 -212 -40 -93 -78 -183 -85 -200 -8 -16 -39 -91 -70 -165 -31 -74
-65 -154 -76 -177 -10 -24 -19 -45 -19 -49 0 -3 -11 -29 -24 -57 -13 -29 -65
-151 -116 -272 -50 -121 -98 -233 -105 -250 -8 -16 -64 -149 -125 -295 -62
-146 -118 -278 -125 -295 -8 -16 -46 -106 -85 -200 -39 -93 -77 -183 -84 -200
-8 -16 -111 -262 -231 -545 -119 -283 -223 -528 -230 -545 -8 -16 -64 -149
-125 -295 -61 -146 -117 -278 -125 -295 -7 -16 -43 -102 -80 -190 -37 -88 -78
-184 -91 -213 -13 -29 -24 -54 -24 -56 0 -4 -142 -341 -165 -391 -7 -16 -23
-55 -35 -85 -12 -30 -32 -78 -46 -108 -13 -29 -24 -55 -24 -57 0 -3 -9 -24
-19 -48 -11 -23 -95 -220 -186 -437 -91 -217 -172 -408 -180 -425 -29 -66 -65
-155 -65 -162 0 -8 716 -11 723 -3 3 3 97 223 210 490 291 687 328 774 332
778 2 2 54 -12 117 -31 102 -32 241 -72 286 -82 100 -24 234 -54 262 -59 19
-3 46 -8 60 -11 42 -9 213 -36 255 -41 22 -3 50 -7 63 -9 13 -2 53 -7 90 -10
37 -4 78 -8 91 -10 139 -23 873 -23 943 -1 7 3 47 7 88 10 41 4 89 8 105 10
85 10 205 28 241 36 23 5 56 12 75 14 52 7 228 45 284 61 28 7 61 16 75 18 35
7 292 82 364 107 33 11 61 18 63 17 2 -2 14 -31 27 -63 29 -72 301 -716 322
-762 9 -18 51 -117 94 -221 42 -103 84 -201 93 -217 l15 -28 191 -1 c105 0
191 4 191 8 0 5 -93 228 -206 495 -114 268 -230 543 -259 612 -29 69 -95 226
-147 350 -53 124 -196 461 -318 750 -122 289 -254 599 -292 690 -39 91 -81
190 -93 220 -12 30 -93 222 -180 425 -86 204 -186 440 -222 525 -36 85 -120
286 -188 445 -68 160 -173 409 -235 555 -61 146 -122 290 -135 320 -13 30 -51
120 -85 200 -33 80 -65 154 -70 165 -9 18 -79 184 -190 450 -21 50 -46 110
-57 135 l-20 45 -132 0 -133 1 -24 -52z m516 -1414 c88 -212 167 -399 175
-415 8 -17 170 -399 360 -850 191 -451 353 -833 360 -850 8 -16 63 -147 123
-290 60 -143 178 -422 262 -620 84 -198 154 -365 157 -371 3 -8 -60 -37 -87
-39 -3 -1 -34 -10 -70 -22 -77 -25 -244 -72 -280 -79 -14 -3 -63 -14 -110 -25
-106 -25 -118 -27 -166 -34 -21 -3 -46 -8 -53 -11 -8 -3 -35 -7 -60 -10 -26
-3 -53 -7 -61 -9 -8 -2 -37 -7 -65 -10 -27 -3 -59 -8 -70 -10 -11 -2 -54 -7
-95 -10 -41 -4 -86 -8 -99 -10 -143 -24 -668 -23 -892 0 -89 9 -232 26 -259
30 -14 3 -43 7 -65 10 -22 3 -76 12 -120 20 -44 8 -91 16 -105 19 -110 19
-570 142 -600 161 -8 5 15 68 65 180 7 17 50 118 95 225 45 107 88 209 95 225
8 17 81 190 163 385 165 391 446 1058 467 1105 29 66 200 470 201 475 0 3 11
28 23 55 13 28 32 72 43 100 11 27 30 73 44 103 13 29 24 54 24 56 0 2 33 82
74 178 40 95 111 261 156 368 45 107 90 213 100 235 9 22 30 72 46 112 l29 72
16 -32 c9 -18 90 -205 179 -417z"/>
</g>
</svg>
